<?xml version="1.0" encoding="UTF-8"?>
<svg xmlns="http://www.w3.org/2000/svg" viewBox="0 0 448.49 288.13">
  <defs>
    <style>
      .favicon-path {
        fill: #e21207;
        stroke: #e21207;
        stroke-width: 5px;
      }
    </style>
  </defs>
  <g>
    <path class="favicon-path" d="m432.55,3.75c-25.78-5.07-176.06-8.87-176.06,15.63,0,8.87,5.49,16.06,13.1,16.06,16.9-4.65,46.34-11.41,60.28-10.56-14.79,12.25-41.83,97.78-48.59,118.9-8.03-.42-27.6,2.11-35.63.42-5.07,16.9,9.77,22.4,29.02,22.4-27.87,106.47-89.76,103.18-115.27,101.56-46.66-2.97-74.59-54.95-75.87-72.1,60.85-4.23,144.85-59.16,144.85-130.14C228.39,16.48,174.73,0,134.16,0,87.68,0,63.38,10.56,25.35,38.87,15.63,46.06,0,62.11,0,75.21c0,9.72,10.14,14.37,18.59,14.37,6.76,0,8.45-8.03,10.99-12.68,23.66-44.37,73.74-55.35,118.95-55.35,27.47,0,52.4,10.56,52.4,38.03,0,60.85-78.09,111.98-133.02,113.24,11.41-29.16,21.69-69,39.43-94.78,1.69-2.54,6.76-6.34,6.76-9.72,0-8.03-10.99-14.37-18.17-14.37-13.94,0-20.42,27.6-25.07,38.16-8.45,19.44-21.97,56.2-31.27,78.17l-7.61-.85c-3.38-.42-7.18,2.11-7.18,5.92,0,5.92,2.96,9.3,7.61,12.68-1.27,11.41-24.08,70.99-29.58,84.51-3.38,8.03,10.99,14.37,18.17,14.37,10.56,0,30-64.65,34.65-77.75,21.55,36.76,51.29,77.18,108.81,78.87,109.32,3.22,116.9-74.82,139.64-123.13,25.35-2.53,90.24-5.07,91.5-2.53,16.48-25.78-61.08-19.44-83.48-19.44,8.03-21.55,24.93-84.68,40.14-99.89,2.11-2.11,5.49-3.38,5.49-6.76,0-5.92-5.49-10.14-10.14-12.68,52.4-4.23,85.77-2.53,92.95,2.11,9.72,0,13.94-17.75-8.03-21.97Z"/>
  </g>
</svg>
