<?xml version="1.0" encoding="UTF-8"?>
<svg title="Reads Feed Logo" width="256px" class="logo" xmlns="http://www.w3.org/2000/svg" viewBox="0 0 387.81 287.4">
  <defs>
    <style>
    path {
      color: var(--color, #e21207);
      fill: currentColor;
    }
    </style>
  </defs>
  <g>
    <g>
      <path d="m379.93,81.43c-7.16,8.05-17,15.75-26.49,22.01,0-7.87-8.95-13.06-8.95-19.51,0-7.52,12.71-23.98,20.4-23.98,1.25,0,3.76-.72,3.76-2.51,0-3.76-6.44-6.26-9.66-6.26-11.63,0-26.31,18.43-26.31,29.53,0,.82.12,1.61.29,2.38-4.51,7.4-17.8,33.06-34.29,33.06-4.3,0-5.37-6.98-5.37-9.84,0-24.88,15.93-64.97,28.1-86.62,1.61-2.86,9.31-13.96,9.31-13.96,0-3.76-5.91-5.73-8.95-5.73-8.95,0-27.56,48.86-30.78,57.98-3.4-3.94-8.05-6.62-13.42-6.62-13.7,0-26.96,15.95-34.76,32.33-3.94,8.26-8.75,16.09-14.62,23.11-5.53,6.62-11,11.49-15.04,11.49-12.53,0,10.92-50.83,13.78-56.2.89-1.97,3.94-3.4,3.94-5.37,0-2.86-4.29-5.37-7.87-5.37-4.12,0-6.98,4.65-8.59,7.7-2.51-5.55-9.13-7.52-14.5-7.52-10.89,0-20.68,9.02-28.02,20.27-4.6,7.05-9.47,13.91-14.9,20.34-9.38,11.1-23.25,25.79-38.51,25.79-5.37,0-6.62-2.86-6.62-7.87,0-1.79,1.61-11.99,2.68-11.99,2.33,0,4.47,1.07,6.8,1.07,14.68,0,33.65-20.58,33.65-34.9,0-8.05-7.52-14.32-15.21-14.32-12.15,0-26.14,19.26-33.74,36.39-3.62,8.15-8.28,15.82-14.29,22.4-6.36,6.95-13.99,12.62-22.29,12.62-12.53,0-27.02-20.58-31.86-30.6,25.77-1.79,70.16-25.06,70.16-55.12,0-20.94-22.73-27.92-39.91-27.92-19.69,0-40.98,4.47-57.09,16.46C6.62,27.2,0,34,0,39.55c0,4.12,4.29,6.08,7.87,6.08,2.86,0,3.58-3.4,4.65-5.37,10.02-18.79,42.24-23.44,61.39-23.44,11.63,0,22.19,4.47,22.19,16.11,0,25.77-41.88,47.43-65.14,47.96,4.83-12.35,9.31-26.49,16.82-37.4.72-1.07,2.86-2.68,2.86-4.12,0-3.4-4.65-6.09-7.7-6.09-5.91,0-8.77,8.95-10.74,13.42-3.58,8.23-9.31,23.8-13.24,33.11l-3.22-.36c-1.43-.18-3.04.89-3.04,2.51,0,2.51,1.25,3.94,3.22,5.37-.54,4.83-10.2,30.07-12.53,35.79-1.43,3.4,4.65,6.08,7.7,6.08,4.47,0,12.71-27.38,14.68-32.93,9.13,15.57,25.06,37.4,45.1,37.4,11.56,0,22.68-8.8,31.19-18.92,3.47,7.85,12,11.76,21.6,11.76,12.64,0,25.12-8.77,34.74-18.5,0,.26-.03.54-.03.79,0,8.41,5.37,17.72,17,17.72,8.23,0,16.29-5.55,22.01-11.63.72,7.7,6.62,13.6,14.85,13.6,8.93,0,17.42-6.1,24.35-13.52,2.28,7,8.68,11.55,16.81,11.55,12.35,0,21.83-11.1,28.46-20.4,1.07,11.1,9.66,20.22,21.12,20.22,12.65,0,29.03-17.56,36.28-32.5,1.35,2.01,2.37,4.02,2.37,6.19,0,12.89-19.69,17-19.69,21.12,0,3.58,4.65,5.73,7.7,5.73,13.78,0,58.16-29.89,58.16-40.63,0-3.4-6.09-6.98-7.87-4.83Zm-236.58-22.37c5.01,3.4-14.85,31.32-25.59,31.32,4.65-8.95,20.94-34.54,25.59-31.32Zm45.45,47.07c-3.76,4.3-10.38,11.28-16.29,11.28-2.15,0-2.86-1.97-2.86-4.65,0-18.25,20.4-52.62,33.65-52.62,14.32,0-11.99,43.13-14.5,45.99Zm60.49,11.45c-1.97-.72-1.97-3.04-1.97-4.65,0-12.71,18.43-52.79,33.11-52.79,3.94,0,4.12,5.73,4.12,8.59,0,13.42-20.4,48.5-35.26,48.86Z"/>
      <g>
        <path d="m168.99,214.2c0-8.05-14.5-7.16-19.69-6.98,3.94-12.17,8.05-24.16,13.42-35.79,4.65-10.02,8.95-18.79,19.87-22.91.72-.36,2.86-1.25,2.86-2.33,0-3.94-5.73-6.26-9.13-6.26-5.01,0-9.84,1.07-14.85,1.07-12.35,0-24.7-1.07-37.05-1.07-43.31,0-78.75,24.7-78.75,70.69,0,17.72,10.38,32.21,29.17,32.21,17,0,35.44-18.43,35.44-35.44,0-3.76-4.12-6.98-7.7-6.98-3.4,5.01-6.8,33.65-32.21,33.65-10.56,0-13.42-10.92-13.42-19.51,0-44.2,32.75-66.04,73.38-66.04,10.38,0,20.58.9,30.96,1.25-12.89,15.93-19.15,38.84-25.23,58.16-3.4.36-21.83.54-21.83,5.19,0,3.76,5.55,6.26,8.77,6.26,3.4,0,6.8-1.07,10.02-1.79-4.47,14.14-16.29,60.85-34.9,60.85-2.33,0-4.29-1.25-6.62-1.25-1.61,0-3.22.89-3.22,2.68,0,5.19,10.56,7.52,14.5,7.52,25.41,0,37.58-51.54,43.49-71.05,6.09-.36,11.81.18,17.9.18,1.43,0,4.83,0,4.83-2.33Z"/>
        <path d="m379.68,216.17c-3.22,4.29-17.36,34.54-35.26,34.54-4.29,0-5.37-6.98-5.37-9.84,0-24.88,15.93-64.96,28.1-86.62,1.61-2.86,9.31-13.96,9.31-13.96,0-3.76-5.91-5.73-8.95-5.73-8.95,0-27.56,48.86-30.78,57.98-3.4-3.94-8.05-6.62-13.42-6.62-11.12,0-21.95,10.51-29.81,23.23-3.81,6.17-7.97,12.12-12.65,17.66-9.38,11.09-23.21,25.69-38.42,25.69-5.37,0-6.62-2.86-6.62-7.87,0-1.79,1.61-11.99,2.68-11.99,2.33,0,4.47,1.07,6.8,1.07,14.68,0,33.65-20.58,33.65-34.9,0-8.05-7.52-14.32-15.21-14.32-9.42,0-19.95,11.59-27.75,24.78-5.13,8.68-11.2,16.8-18.08,24.18-8.87,9.51-20.26,19.05-32.56,19.05-5.37,0-6.62-2.86-6.62-7.87,0-1.79,1.61-11.99,2.68-11.99,2.33,0,4.47,1.07,6.8,1.07,14.68,0,33.65-20.58,33.65-34.9,0-8.05-7.52-14.32-15.21-14.32-17.72,0-39.37,40.98-39.37,56.55,0,13.42,10.74,20.04,23.27,20.04s24.43-8.29,33.94-17.7c1.18,11.85,11.37,17.7,23.15,17.7s24.33-8.23,33.83-17.59c0,.07,0,.15,0,.23,0,10.2,7.52,17.36,17.72,17.36,12.35,0,21.83-11.1,28.46-20.4,1.07,11.1,9.66,20.22,21.12,20.22,14.68,0,34.36-23.62,39.01-39.37.9-3.22-6.26-7.7-8.05-5.37Zm-169.47-22.55c5.01,3.4-14.85,31.32-25.59,31.32,4.65-8.95,20.94-34.54,25.59-31.32Zm57.09,0c5.01,3.4-14.85,31.32-25.59,31.32,4.65-8.95,20.94-34.54,25.59-31.32Zm27.74,58.52c-1.97-.72-1.97-3.04-1.97-4.65,0-12.71,18.43-52.8,33.11-52.8,3.94,0,4.12,5.73,4.12,8.59,0,13.42-20.4,48.5-35.26,48.86Z"/>
      </g>
    </g>
  </g>
</svg>
